<?xml version="1.0" encoding="UTF-8" standalone="no"?>
<!DOCTYPE svg PUBLIC "-//W3C//DTD SVG 1.1//EN" "http://www.w3.org/Graphics/SVG/1.1/DTD/svg11.dtd">
<svg width="100%" height="100%" viewBox="0 0 1024 1024" version="1.1" xmlns="http://www.w3.org/2000/svg" xmlns:xlink="http://www.w3.org/1999/xlink" xml:space="preserve" xmlns:serif="http://www.serif.com/" style="fill-rule:evenodd;clip-rule:evenodd;stroke-linecap:round;stroke-linejoin:round;stroke-miterlimit:1.5;">
    <g>
        <g>
            <g transform="matrix(17.4427,0,0,17.4427,-79.0383,77.7504)">
                <path d="M25.129,8.017C25.129,7.193 24.461,6.525 23.637,6.525L7.823,6.525C6.999,6.525 6.331,7.193 6.331,8.017L6.331,14.981C6.331,15.804 6.999,16.473 7.823,16.473L23.637,16.473C24.461,16.473 25.129,15.804 25.129,14.981L25.129,8.017Z" style="fill:rgb(255,255,235);fill-opacity:0;stroke:black;stroke-width:0.5px;"/>
            </g>
            <g transform="matrix(94.7279,1.72283e-14,-5.74564e-15,15.3249,-1267.04,306.809)">
                <path d="M17.572,21.371C18.955,21.432 18.442,14.276 20.245,14.333" style="fill:none;stroke:rgb(255,151,0);stroke-width:0.13px;"/>
            </g>
            <g transform="matrix(17.4427,0,0,17.4427,-43.2123,442.89)">
                <path d="M25.129,8.017C25.129,7.193 24.461,6.525 23.637,6.525L7.823,6.525C6.999,6.525 6.331,7.193 6.331,8.017L6.331,14.981C6.331,15.804 6.999,16.473 7.823,16.473L23.637,16.473C24.461,16.473 25.129,15.804 25.129,14.981L25.129,8.017Z" style="fill:rgb(255,255,235);fill-opacity:0;stroke:rgb(255,151,0);stroke-width:0.5px;"/>
            </g>
            <g transform="matrix(17.4427,0,0,17.4427,541.697,324.363)">
                <path d="M25.129,8.017C25.129,7.193 24.461,6.525 23.637,6.525L7.823,6.525C6.999,6.525 6.331,7.193 6.331,8.017L6.331,14.981C6.331,15.804 6.999,16.473 7.823,16.473L23.637,16.473C24.461,16.473 25.129,15.804 25.129,14.981L25.129,8.017Z" style="fill:rgb(255,255,235);fill-opacity:0;stroke:black;stroke-width:0.5px;"/>
            </g>
            <g transform="matrix(17.4427,0,0,17.4427,558.512,-86.191)">
                <path d="M25.129,8.017C25.129,7.193 24.461,6.525 23.637,6.525L7.823,6.525C6.999,6.525 6.331,7.193 6.331,8.017L6.331,14.981C6.331,15.804 6.999,16.473 7.823,16.473L23.637,16.473C24.461,16.473 25.129,15.804 25.129,14.981L25.129,8.017Z" style="fill:rgb(255,255,235);fill-opacity:0;stroke:black;stroke-width:0.5px;"/>
            </g>
            <g transform="matrix(106.262,0,0,35.4383,-1497.74,-480.333)">
                <path d="M17.572,21.371C18.955,21.432 18.587,16.688 20.39,16.745" style="fill:none;stroke:black;stroke-width:0.11px;"/>
            </g>
            <g transform="matrix(106.262,0,0,-35.4383,-1501.94,1034.4)">
                <path d="M17.572,21.371C18.955,21.432 18.442,14.276 20.245,14.333" style="fill:none;stroke:black;stroke-width:0.11px;"/>
            </g>
        </g>
        <g transform="matrix(51.2832,0,0,17.8653,-296.682,700.702)">
            <path d="M25.129,8.017C25.129,7.193 24.896,6.525 24.609,6.525L6.851,6.525C6.564,6.525 6.331,7.193 6.331,8.017L6.331,14.981C6.331,15.804 6.564,16.473 6.851,16.473L24.609,16.473C24.896,16.473 25.129,15.804 25.129,14.981L25.129,8.017Z" style="fill:rgb(255,255,235);fill-opacity:0;stroke:black;stroke-width:0.23px;"/>
        </g>
        <g transform="matrix(47.929,0,0,5.47057,-241.818,816.602)">
            <path d="M25.129,8.017C25.129,7.193 25.053,6.525 24.959,6.525L6.501,6.525C6.407,6.525 6.331,7.193 6.331,8.017L6.331,14.981C6.331,15.804 6.407,16.473 6.501,16.473L24.959,16.473C25.053,16.473 25.129,15.804 25.129,14.981L25.129,8.017Z" style="fill:rgb(255,255,235);fill-opacity:0;stroke:black;stroke-width:0.26px;"/>
        </g>
    </g>
</svg>
