<svg fill="none" height="24" viewBox="0 0 24 24" width="24" xmlns="http://www.w3.org/2000/svg"><path d="m20 20v-7m-8 7v-10m-8 10v-4m9.4067-10.9725 5.1684 1.93817m-7.7763-1.56475-5.59857 4.19891m15.86047-3.16049c.5857.58579.5857 1.53553 0 2.12132-.5858.58579-1.5356.58579-2.1214 0-.5857-.58579-.5857-1.53553 0-2.12132.5858-.58579 1.5356-.58579 2.1214 0zm-16.00004 3c.58579.58576.58579 1.53556 0 2.12136-.58579.5857-1.53553.5857-2.12132 0-.58579-.5858-.58579-1.5356 0-2.12136.58579-.58579 1.53553-.58579 2.12132 0zm8.00004-6c.5857.58579.5857 1.53553 0 2.12132-.5858.58579-1.5356.58579-2.1214 0-.5857-.58579-.5857-1.53553 0-2.12132.5858-.58579 1.5356-.58579 2.1214 0z" stroke="#000" stroke-linecap="round" stroke-linejoin="round" stroke-width="2"/></svg>