<svg width="752" height="752" xmlns="http://www.w3.org/2000/svg">

 <g>
  <title>background</title>
  <rect fill="none" id="canvas_background" height="402" width="582" y="-1" x="-1"/>
 </g>
 <g>
  <title>Layer 1</title>
  <path fill="#ff5656" stroke="#0f0f00" id="svg_2" d="m313.49,302.12c-1.4219,0 -2.8398,-0.94531 -3.3164,-2.3672l-6.1562,-14.68c-1.4219,-3.3164 -5.6836,-3.3164 -7.1055,0l-6.1523,14.68c-0.47266,1.4219 -1.8945,2.3672 -3.3164,2.3672l-15.629,1.4219c-3.3164,0.47266 -4.7344,4.7344 -2.3672,6.6289l12.312,10.418c0.94531,0.94531 1.4219,2.3672 1.4219,3.7891l-3.7891,15.629c-0.94531,3.3164 2.8398,6.1562 5.6836,4.2617l13.734,-8.0508c1.4219,-0.94531 2.8398,-0.94531 4.2617,0l13.734,8.0508c2.8398,1.8945 6.6289,-0.94531 5.6836,-4.2617l-3.7891,-15.629c-0.47266,-1.4219 0,-2.8398 1.4219,-3.7891l12.312,-10.418c2.8398,-2.3672 1.4219,-6.6289 -2.3672,-6.6289l-16.5763,-1.4219z"/>
  <path fill="#ff5656" stroke="#0f0f00" id="svg_3" d="m471.66,306.86l-109.87,0c-7.1055,0 -12.785,5.6836 -12.785,12.785c0,7.1055 5.6836,12.785 12.785,12.785l109.4,0c7.1055,0 12.785,-5.6836 12.785,-12.785c0.47656,-7.1016 -5.207,-12.785 -12.312,-12.785l-0.003,0z"/>
  <path fill="#ff5656" stroke="#0f0f00" id="svg_4" d="m313.49,391.16c-1.4219,0 -2.8398,-0.94531 -3.3164,-2.3672l-6.1562,-14.68c-1.4219,-3.3164 -5.6836,-3.3164 -7.1055,0l-6.1523,14.68c-0.47266,1.4219 -1.8945,2.3672 -3.3164,2.3672l-15.629,1.4219c-3.3164,0.47266 -4.7344,4.7344 -2.3672,6.6289l12.312,10.418c0.94531,0.94531 1.4219,2.3672 1.4219,3.7891l-3.7891,15.629c-0.94531,3.3164 2.8398,6.1562 5.6836,4.2617l13.734,-8.5234c1.4219,-0.94531 2.8398,-0.94531 4.2617,0l13.734,8.5234c2.8398,1.8945 6.6289,-0.94531 5.6836,-4.2617l-4.2656,-15.156c-0.47266,-1.4219 0,-2.8398 1.4219,-3.7891l12.312,-10.418c2.8398,-2.3672 1.4219,-6.6289 -2.3672,-6.6289l-16.0998,-1.8949z"/>
  <path fill="#ff5656" stroke="#0f0f00" id="svg_5" d="m471.66,395.89l-109.87,0c-7.1055,0 -12.785,5.6836 -12.785,12.785c0,7.1055 5.6836,12.785 12.785,12.785l109.4,0c7.1055,0 12.785,-5.6836 12.785,-12.785c0.47656,-7.1016 -5.207,-12.785 -12.312,-12.785l-0.003,0z"/>
  <path fill="#ff5656" stroke="#0f0f00" id="svg_6" d="m313.49,480.66c-1.4219,0 -2.8398,-0.94531 -3.3164,-2.3672l-6.1562,-14.68c-1.4219,-3.3164 -5.6836,-3.3164 -7.1055,0l-6.1523,14.676c-0.47266,1.4219 -1.8945,2.3672 -3.3164,2.3672l-15.629,0.94922c-3.3164,0.47266 -4.7344,4.7344 -2.3672,6.6289l11.84,10.895c0.94531,0.94531 1.4219,2.3672 1.4219,3.7891l-3.7891,15.629c-0.94531,3.3164 2.8398,6.1562 5.6836,4.2617l13.734,-8.0508c1.4219,-0.94531 2.8398,-0.94531 4.2617,0l13.734,8.5234c2.8398,1.8945 6.6289,-0.94531 5.6836,-4.2617l-3.7891,-15.629c-0.47266,-1.4219 0,-2.8398 1.4219,-3.7891l12.312,-10.418c2.8398,-2.3672 1.4219,-6.6289 -2.3672,-6.6289l-16.1043,-1.89482z"/>
  <path fill="#ff5656" stroke="#0f0f00" id="svg_7" d="m471.66,484.93l-109.87,0c-7.1055,0 -12.785,5.6836 -12.785,12.785c0,7.1055 5.6836,12.785 12.785,12.785l109.4,0c7.1055,0 12.785,-5.6836 12.785,-12.785c0.47656,-6.6289 -5.207,-12.785 -12.312,-12.785l-0.003,0z"/>
  <path fill="#ff5656" stroke="#0f0f00" id="svg_8" d="m535.12,180.89l-60.145,0l0,-17.051c0,-7.1055 -5.6836,-12.785 -12.785,-12.785c-7.1055,0 -12.785,5.6836 -12.785,12.785l0,17.051l-60.621,0l0,-17.051c0,-7.1055 -5.6836,-12.785 -12.785,-12.785c-7.1055,0 -12.785,5.6836 -12.785,12.785l0,17.051l-60.621,0l0,-17.051c0,-7.1055 -5.6836,-12.785 -12.785,-12.785c-7.1055,0 -12.785,5.6836 -12.785,12.785l0,17.051l-60.148,0c-11.367,0 -20.836,9.4727 -20.836,20.836l0,378.39c0,11.367 9.4727,20.836 20.836,20.836l318.25,0c11.367,0 20.836,-9.4727 20.836,-20.836l0,-378.39c0,-11.363 -9.4688,-20.836 -20.836,-20.836l-0.005,0zm-4.7344,394.49l-308.78,0l0,-368.92l55.41,0l0,17.051c0,7.1055 5.6836,12.785 12.785,12.785c7.1055,0 12.785,-5.6836 12.785,-12.785l0,-17.051l60.617,0l0,17.051c0,7.1055 5.6836,12.785 12.785,12.785c7.1055,0 12.785,-5.6836 12.785,-12.785l0,-17.051l60.617,0l0,17.051c0,7.1055 5.6836,12.785 12.785,12.785c7.1055,0 12.785,-5.6836 12.785,-12.785l0,-17.051l55.41,0l0.016,368.92z"/>
 </g>
</svg>