<?xml version="1.0" encoding="UTF-8"?>
<svg width="752pt" height="752pt" version="1.1" viewBox="0 0 752 752" xmlns="http://www.w3.org/2000/svg">
 <g>
  <path d="m313.49 302.12c-1.4219 0-2.8398-0.94531-3.3164-2.3672l-6.1562-14.68c-1.4219-3.3164-5.6836-3.3164-7.1055 0l-6.1523 14.68c-0.47266 1.4219-1.8945 2.3672-3.3164 2.3672l-15.629 1.4219c-3.3164 0.47266-4.7344 4.7344-2.3672 6.6289l12.312 10.418c0.94531 0.94531 1.4219 2.3672 1.4219 3.7891l-3.7891 15.629c-0.94531 3.3164 2.8398 6.1562 5.6836 4.2617l13.734-8.0508c1.4219-0.94531 2.8398-0.94531 4.2617 0l13.734 8.0508c2.8398 1.8945 6.6289-0.94531 5.6836-4.2617l-3.7891-15.629c-0.47266-1.4219 0-2.8398 1.4219-3.7891l12.312-10.418c2.8398-2.3672 1.4219-6.6289-2.3672-6.6289z"/>
  <path d="m471.66 306.86h-109.87c-7.1055 0-12.785 5.6836-12.785 12.785 0 7.1055 5.6836 12.785 12.785 12.785h109.4c7.1055 0 12.785-5.6836 12.785-12.785 0.47656-7.1016-5.207-12.785-12.312-12.785z"/>
  <path d="m313.49 391.16c-1.4219 0-2.8398-0.94531-3.3164-2.3672l-6.1562-14.68c-1.4219-3.3164-5.6836-3.3164-7.1055 0l-6.1523 14.68c-0.47266 1.4219-1.8945 2.3672-3.3164 2.3672l-15.629 1.4219c-3.3164 0.47266-4.7344 4.7344-2.3672 6.6289l12.312 10.418c0.94531 0.94531 1.4219 2.3672 1.4219 3.7891l-3.7891 15.629c-0.94531 3.3164 2.8398 6.1562 5.6836 4.2617l13.734-8.5234c1.4219-0.94531 2.8398-0.94531 4.2617 0l13.734 8.5234c2.8398 1.8945 6.6289-0.94531 5.6836-4.2617l-4.2656-15.156c-0.47266-1.4219 0-2.8398 1.4219-3.7891l12.312-10.418c2.8398-2.3672 1.4219-6.6289-2.3672-6.6289z"/>
  <path d="m471.66 395.89h-109.87c-7.1055 0-12.785 5.6836-12.785 12.785 0 7.1055 5.6836 12.785 12.785 12.785h109.4c7.1055 0 12.785-5.6836 12.785-12.785 0.47656-7.1016-5.207-12.785-12.312-12.785z"/>
  <path d="m313.49 480.66c-1.4219 0-2.8398-0.94531-3.3164-2.3672l-6.1562-14.68c-1.4219-3.3164-5.6836-3.3164-7.1055 0l-6.1523 14.676c-0.47266 1.4219-1.8945 2.3672-3.3164 2.3672l-15.629 0.94922c-3.3164 0.47266-4.7344 4.7344-2.3672 6.6289l11.84 10.895c0.94531 0.94531 1.4219 2.3672 1.4219 3.7891l-3.7891 15.629c-0.94531 3.3164 2.8398 6.1562 5.6836 4.2617l13.734-8.0508c1.4219-0.94531 2.8398-0.94531 4.2617 0l13.734 8.5234c2.8398 1.8945 6.6289-0.94531 5.6836-4.2617l-3.7891-15.629c-0.47266-1.4219 0-2.8398 1.4219-3.7891l12.312-10.418c2.8398-2.3672 1.4219-6.6289-2.3672-6.6289z"/>
  <path d="m471.66 484.93h-109.87c-7.1055 0-12.785 5.6836-12.785 12.785 0 7.1055 5.6836 12.785 12.785 12.785h109.4c7.1055 0 12.785-5.6836 12.785-12.785 0.47656-6.6289-5.207-12.785-12.312-12.785z"/>
  <path d="m535.12 180.89h-60.145v-17.051c0-7.1055-5.6836-12.785-12.785-12.785-7.1055 0-12.785 5.6836-12.785 12.785v17.051h-60.621v-17.051c0-7.1055-5.6836-12.785-12.785-12.785-7.1055 0-12.785 5.6836-12.785 12.785v17.051h-60.621v-17.051c0-7.1055-5.6836-12.785-12.785-12.785-7.1055 0-12.785 5.6836-12.785 12.785v17.051h-60.148c-11.367 0-20.836 9.4727-20.836 20.836v378.39c0 11.367 9.4727 20.836 20.836 20.836h318.25c11.367 0 20.836-9.4727 20.836-20.836v-378.39c0-11.363-9.4688-20.836-20.836-20.836zm-4.7344 394.49h-308.78v-368.92h55.41v17.051c0 7.1055 5.6836 12.785 12.785 12.785 7.1055 0 12.785-5.6836 12.785-12.785v-17.051h60.617v17.051c0 7.1055 5.6836 12.785 12.785 12.785 7.1055 0 12.785-5.6836 12.785-12.785v-17.051h60.617v17.051c0 7.1055 5.6836 12.785 12.785 12.785 7.1055 0 12.785-5.6836 12.785-12.785v-17.051h55.41z"/>
 </g>
</svg>
